# xmcd
#
# Track frame offsets:
#	150
#	9379
#	20764
#	33657
#	52510
#	64062
#	75880
#	90478
#	105109
#	112281
#	120517
#	134159
#	147626
#
# Disc length: 2234 seconds
#
# Revision: 0
# Processed by: cddbd v1.5.2PL0 Copyright (c) Steve Scherf et al.
# Submitted via: EasyCDDAExtractor 12.0.7.1
#
DISCID=a508b80d
DTITLE=Владимир Высоцкий - Любой из нас - ну чем не чародей?!
DYEAR=2011
DGENRE=Chanson
TTITLE0=Марш шахтеров
TTITLE1=Обо мне, о поездах и о пустынях
TTITLE2=Песенка киноактера
TTITLE3=Тюменская нефть
TTITLE4=Попутчик
TTITLE5=Москва - Одесса
TTITLE6=Кругом пятьсот
TTITLE7=Прыгун в высоту
TTITLE8=Марафон
TTITLE9=Прыгун в длину
TTITLE10=Честь шахматной короны. Подготовка
TTITLE11=Честь шахматной короны. Игра
TTITLE12=Кто за чем бежит
EXTD=
EXTT0=
EXTT1=
EXTT2=
EXTT3=
EXTT4=
EXTT5=
EXTT6=
EXTT7=
EXTT8=
EXTT9=
EXTT10=
EXTT11=
EXTT12=
PLAYORDER=
